<svg xmlns="http://www.w3.org/2000/svg" viewBox="0 0 239.43 150.9"><defs><style>.cls-1{fill:#1a1a1a;}</style></defs><title>Asset 3</title><g id="Layer_2" data-name="Layer 2"><g id="Layer_1-2" data-name="Layer 1"><polygon class="cls-1" points="68.58 131.62 62.18 131.62 62.18 19.52 68.58 19.52 68.58 72.09 100.75 72.09 100.75 41.54 107.09 41.54 107.09 109.41 100.75 109.41 100.75 79.17 68.58 79.17 68.58 131.62"/><polygon class="cls-1" points="169.01 109.58 162.92 109.58 162.83 109.31 139.28 41.48 146.18 41.48 146.28 41.76 166.08 99.06 186.13 41.48 192.66 41.48 169.01 109.58"/><polygon class="cls-1" points="239.43 109.65 201.3 109.65 201.3 41.54 238.29 41.54 238.29 48.52 207.71 48.52 207.71 71.62 234.98 71.62 234.98 78.51 207.71 78.51 207.71 102.67 239.43 102.67 239.43 109.65"/><path class="cls-1" d="M65.34,150.9,0,113.17V37.72L65.34,0l65.34,37.72v75.45ZM6.48,109.43l58.86,34,58.86-34v-68l-58.86-34-58.86,34Z"/></g></g></svg>