<svg xmlns="http://www.w3.org/2000/svg" viewBox="0 0 437.21 524.16"><defs><style>.cls-1{fill:#ed1c24;}.cls-1,.cls-2,.cls-3,.cls-4,.cls-5{opacity:0.55;}.cls-2{fill:#f15a24;}.cls-3{fill:#ff931e;}.cls-4{fill:#ffb41f;}.cls-5{fill:#e82a21;}</style></defs><title>new (2)</title><g id="Layer_2" data-name="Layer 2"><g id="Iphone_SE" data-name="Iphone SE"><g id="new"><g id="GRAPHIC"><polygon class="cls-1" points="282.14 241.24 220.94 256.74 220.9 183.04 282.21 162.67 282.14 241.24"/><polygon class="cls-2" points="221.62 217.23 282.79 236.84 282.79 157.25 221.62 133.31 221.62 217.23"/><polygon class="cls-2" points="354.54 222.91 288.26 239.69 288.26 160.66 354.54 138.64 354.54 222.91"/><polygon class="cls-2" points="287.51 201.77 220.36 222.03 220.36 136.25 287.51 110.93 287.51 201.77"/><polygon class="cls-3" points="288.1 196.85 222.37 174.47 222.37 77.36 288.12 105.58 288.1 196.85"/><polygon class="cls-3" points="355.77 219.5 294.89 198.95 294.89 108.48 355.77 134.6 355.77 219.5"/><polygon class="cls-3" points="435.68 202.37 361.23 221.22 361.31 136.55 435.68 111.45 435.68 202.37"/><polygon class="cls-3" points="371.29 176.49 295.08 199.49 295.13 108.12 371.29 79.95 371.29 176.49"/><polygon class="cls-3" points="296.74 148 220.36 173.24 220.36 73.99 296.74 42.68 296.74 148"/><polygon class="cls-4" points="437.21 108.46 437.21 198.88 377.77 175.12 377.77 78.45 437.21 108.46"/><polygon class="cls-4" points="372.44 75.76 372.44 172.97 304.64 145.65 304.64 41.53 372.44 75.76"/><polygon class="cls-4" points="297.87 38.11 297.87 142.92 222.38 112.56 222.38 0 297.87 38.11"/><polygon class="cls-5" points="282.15 332.18 221.01 344.58 221.01 266.03 282.22 250.53 282.15 332.18"/><polygon class="cls-2" points="221.62 316.33 282.79 330.23 282.79 244.84 221.62 226.02 221.62 316.33"/><polygon class="cls-2" points="354.54 318.54 288.26 331.4 288.26 249 354.54 232.22 354.54 318.54"/><polygon class="cls-2" points="287.27 301.67 220.36 316.88 220.36 231.34 287.51 211.09 287.27 301.67"/><polygon class="cls-3" points="288.26 299.84 222.37 282.95 222.37 182.37 288.26 204.62 288.26 299.84"/><polygon class="cls-3" points="355.77 317.14 295.13 301.6 295.13 206.94 355.77 227.41 355.77 317.14"/><polygon class="cls-3" points="435.99 302.72 361.31 317.22 361.31 230.51 435.69 211.67 435.99 302.72"/><polygon class="cls-3" points="371.29 282.58 295.08 299.9 295.13 208.79 371.29 185.81 371.29 282.58"/><polygon class="cls-3" points="296.74 260.17 220.36 280.17 220.36 183.22 296.74 157.85 296.74 260.17"/><polygon class="cls-4" points="437.21 208.78 437.21 301.69 377.75 283.29 378.07 185.08 437.21 208.78"/><polygon class="cls-4" points="372.44 182.85 372.44 281.64 304.64 260.78 304.64 156.09 372.44 182.85"/><polygon class="cls-4" points="297.87 153.41 297.87 258.7 222.37 235.47 222.37 123.51 297.87 153.41"/><polygon class="cls-5" points="282.22 426.96 221.01 432.92 221.01 352.87 282.22 340.45 282.22 426.96"/><polygon class="cls-2" points="221.62 416.82 282.79 426.05 282.79 338.49 221.62 324.65 221.62 416.82"/><polygon class="cls-2" points="354.96 419.87 288.26 426.37 288.39 339.5 354.96 326.75 354.96 419.87"/><polygon class="cls-2" points="287.27 408.53 220.36 416.78 220.36 324.85 287.27 309.64 287.27 408.53"/><polygon class="cls-3" points="288.26 408.41 288.26 308.38 222.28 291.18 222.28 397.6 288.26 408.41"/><polygon class="cls-3" points="355.77 419.42 295.13 409.63 295.13 310.14 355.77 326.1 355.77 419.42"/><polygon class="cls-5" points="282.22 521.83 221.01 524.16 221.01 439.95 282.22 434.14 282.22 521.83"/><polygon class="cls-2" points="221.62 516.86 282.79 521.67 282.79 432.62 221.62 423.39 221.62 516.86"/><polygon class="cls-1" points="155.07 241.24 216.27 256.74 216.31 183.04 155 162.67 155.07 241.24"/><polygon class="cls-2" points="215.59 217.23 154.42 236.84 154.42 157.25 215.59 133.31 215.59 217.23"/><polygon class="cls-2" points="82.67 222.91 148.95 239.69 148.95 160.66 82.67 138.64 82.67 222.91"/><polygon class="cls-2" points="149.7 201.77 216.85 222.03 216.85 136.25 149.7 110.93 149.7 201.77"/><polygon class="cls-3" points="149.11 196.85 214.84 174.47 214.84 77.36 149.09 105.58 149.11 196.85"/><polygon class="cls-3" points="81.44 219.5 142.32 198.95 142.32 108.48 81.44 134.6 81.44 219.5"/><polygon class="cls-3" points="1.53 202.37 75.98 221.22 75.9 136.55 1.53 111.45 1.53 202.37"/><polygon class="cls-3" points="65.92 176.49 142.13 199.49 142.09 108.12 65.92 79.95 65.92 176.49"/><polygon class="cls-3" points="140.47 148 216.85 173.24 216.85 73.99 140.47 42.68 140.47 148"/><polygon class="cls-4" points="0 108.46 0 198.88 59.44 175.12 59.44 78.45 0 108.46"/><polygon class="cls-4" points="64.77 75.76 64.77 172.97 132.57 145.65 132.57 41.53 64.77 75.76"/><polygon class="cls-4" points="139.34 38.11 139.34 142.92 214.82 112.56 214.82 0 139.34 38.11"/><polygon class="cls-5" points="155.06 332.18 216.2 344.58 216.2 266.03 154.99 250.53 155.06 332.18"/><polygon class="cls-2" points="215.59 316.33 154.42 330.23 154.42 244.84 215.59 226.02 215.59 316.33"/><polygon class="cls-2" points="82.67 318.54 148.95 331.4 148.95 249 82.67 232.22 82.67 318.54"/><polygon class="cls-2" points="149.94 301.67 216.85 316.88 216.85 231.34 149.7 211.09 149.94 301.67"/><polygon class="cls-3" points="148.95 299.84 214.84 282.95 214.84 182.37 148.95 204.62 148.95 299.84"/><polygon class="cls-3" points="81.44 317.14 142.08 301.6 142.08 206.94 81.44 227.41 81.44 317.14"/><polygon class="cls-3" points="1.22 302.72 75.9 317.22 75.9 230.51 1.52 211.67 1.22 302.72"/><polygon class="cls-3" points="65.92 282.58 142.13 299.9 142.08 208.79 65.92 185.81 65.92 282.58"/><polygon class="cls-3" points="140.47 260.17 216.85 280.17 216.85 183.22 140.47 157.85 140.47 260.17"/><polygon class="cls-4" points="0 208.78 0 301.69 59.46 283.29 59.14 185.08 0 208.78"/><polygon class="cls-4" points="64.77 182.85 64.77 281.64 132.57 260.78 132.57 156.09 64.77 182.85"/><polygon class="cls-4" points="139.34 153.41 139.34 258.7 214.84 235.47 214.84 123.51 139.34 153.41"/><polygon class="cls-5" points="154.99 426.96 216.2 432.92 216.2 352.87 154.99 340.45 154.99 426.96"/><polygon class="cls-2" points="215.59 416.82 154.42 426.05 154.42 338.49 215.59 324.65 215.59 416.82"/><polygon class="cls-2" points="82.25 419.87 148.95 426.37 148.82 339.5 82.25 326.75 82.25 419.87"/><polygon class="cls-2" points="149.94 408.53 216.85 416.78 216.85 324.85 149.94 309.64 149.94 408.53"/><polygon class="cls-3" points="148.95 408.41 148.95 308.38 214.93 291.18 214.93 397.6 148.95 408.41"/><polygon class="cls-3" points="81.44 419.42 142.08 409.63 142.08 310.14 81.44 326.1 81.44 419.42"/><polygon class="cls-5" points="154.99 521.83 216.2 524.16 216.2 439.95 154.99 434.14 154.99 521.83"/><polygon class="cls-2" points="215.59 516.86 154.42 521.67 154.42 432.62 215.59 423.39 215.59 516.86"/></g></g></g></g></svg>